<svg xmlns="http://www.w3.org/2000/svg" width="430" height="430" style="width:100%;height:100%;transform:translate3d(0,0,0);content-visibility:visible" viewBox="0 0 430 430"><defs><clipPath id="a"><path d="M0 0h430v430H0z"/></clipPath><clipPath id="c"><path d="M0 0h430v430H0z"/></clipPath><clipPath id="b"><path d="M0 0h430v430H0z"/></clipPath></defs><g clip-path="url(#a)"><g clip-path="url(#b)" style="display:block"><path fill="none" stroke="#B26836" stroke-linecap="round" stroke-linejoin="round" stroke-width="7" d="M-31.368 0h62.736" class="secondary" style="display:block" transform="translate(214.958 375.119)"/><g fill="none" stroke-linecap="round" stroke-linejoin="round" stroke-width="7" style="display:block"><path stroke="#2CA58D" d="m95.916 304.903-67.722.25m373.161 0-71.222-.25" class="senary"/><path stroke="#3A3347" d="m219.279 95.661-22.008-40.03m12.701 40.405 22.166-40.03" class="tertiary"/></g><g style="display:block"><path fill="#3A3347" d="m214.862 175.652-73.172 132.94h146.344l-73.172-132.94z" class="tertiary"/><path fill="#B26836" d="M288.033 308.592c-48.908-38.127-73.171-132.751-73.171-132.751s-24.263 94.624-73.171 132.751H88.785l63.043-114.37 63.034-114.37 63.034 114.37 63.043 114.37h-52.906z" class="secondary"/><path fill="#B26836" d="M65.798-95.737 55.529-114.37-7.505 0l-63.043 114.37h20.538L13.034 0l52.764-95.737z" class="secondary" opacity=".5" style="mix-blend-mode:multiply" transform="translate(159.333 194.222)"/><path fill="#F24C00" d="m103.405 281.505-14.62 27.086h52.906c9.748-7.599 17.513-16.195 25.306-27.086h-63.592z" class="primary"/><path fill="#F24C00" d="m-5.834-12.918-14.62 27.086H.085l14.619-27.086H-5.834z" class="primary" opacity=".5" style="mix-blend-mode:multiply" transform="translate(109.239 294.423)"/><path fill="#F24C00" d="m325.694 281.505 15.245 27.086h-52.906c-9.748-7.599-18.138-16.195-25.931-27.086h63.592zm-76.042-138.529h-69.696l34.788-63.124" class="primary"/><path fill="#F24C00" d="M20.213-12.954 9.825-31.562l-34.788 63.124h20.641l24.535-44.516z" class="primary" opacity=".5" style="mix-blend-mode:multiply" transform="translate(204.919 111.414)"/><path fill="none" stroke="#EBE6EF" stroke-linecap="round" stroke-linejoin="round" stroke-width="7" d="M205.147 168.791h19.547" class="quaternary"/><path fill="#3A3347" d="M205.147 153.791h19.547" class="tertiary"/><path fill="none" stroke="#EBE6EF" stroke-linecap="round" stroke-linejoin="round" stroke-width="7" d="M205.147 153.791h19.547" class="quaternary"/></g><path fill="none" stroke="#2CA58D" stroke-linecap="round" stroke-linejoin="round" stroke-width="7" d="m373.746 301.152 10.716-21.432m-10.618 21.432-10.716-21.432M55.246 301.152l10.716-21.432m-10.618 21.432L44.628 279.72m61.618 95.682 10.716-21.432m-10.618 21.432L95.628 353.97m228.118 21.432 10.716-21.432m-10.618 21.432-10.716-21.432" class="senary" style="display:block"/><path fill="#FFC738" d="m252.377 313.373-25.645 13.361-11.727-48.555-14.184 48.555-23.092-13.475s3.69 28.385 3.869 30.59c1.375 16.94 16.11 30.866 33.407 30.866 17.296 0 32.4-13.255 33.776-30.197.178-2.187 3.596-31.145 3.596-31.145z" class="quinary" style="display:block"/></g><g clip-path="url(#c)" style="display:none"><path fill="none" class="secondary" style="display:none"/><g fill="none" style="display:none"><path class="senary"/><path class="tertiary"/></g><g style="display:none"><path class="tertiary"/><path class="secondary"/><path class="secondary" style="mix-blend-mode:multiply"/><path class="primary"/><path class="primary" style="mix-blend-mode:multiply"/><path class="primary"/><path class="primary"/><path class="primary" style="mix-blend-mode:multiply"/><path fill="none" class="quaternary"/><path class="tertiary"/><path fill="none" class="quaternary"/></g><g fill="none" style="display:none"><path class="senary"/><path class="senary"/></g><g fill="none" style="display:none"><path class="senary"/><path class="senary"/></g><g fill="none" style="display:none"><path class="senary"/><path class="senary"/></g><g fill="none" style="display:none"><path class="senary"/><path class="senary"/></g><path fill="none" class="secondary" style="display:none"/><path class="quinary" style="display:none"/></g></g></svg>