<svg xmlns="http://www.w3.org/2000/svg" width="430" height="430" style="width:100%;height:100%;transform:translate3d(0,0,0);content-visibility:visible" viewBox="0 0 430 430"><defs><clipPath id="a"><path d="M0 0h430v430H0z"/></clipPath><clipPath id="j"><path d="M0 0h430v430H0z"/></clipPath><clipPath id="k"><path d="M0 0h430v430H0z"/></clipPath><clipPath id="l"><path d="M0 0h430v430H0z"/></clipPath><clipPath id="e"><path d="M0 0h430v430H0z"/></clipPath><clipPath id="h"><path d="M0 0h430v430H0z"/></clipPath><clipPath id="i"><path d="M0 0h430v430H0z"/></clipPath><clipPath id="f"><path d="M0 0h430v430H0z"/></clipPath><clipPath id="g"><path d="M0 0h430v430H0z"/></clipPath><clipPath id="b"><path d="M0 0h430v430H0z"/></clipPath><clipPath id="c"><path d="M0 0h430v430H0z"/></clipPath><clipPath id="d"><path d="M0 0h430v430H0z"/></clipPath></defs><g clip-path="url(#a)"><g clip-path="url(#b)" style="display:none"><g clip-path="url(#c)" style="display:none"><g clip-path="url(#d)" style="display:none"><path class="tertiary" style="display:none"/><path class="tertiary" style="mix-blend-mode:multiply;display:none"/><path fill="none" class="primary" style="display:none"/></g><g style="display:none"><path class="quaternary"/><path class="primary"/></g><g style="display:none"><path class="primary"/><path class="primary" style="mix-blend-mode:multiply"/></g><path class="secondary" style="display:none"/><path class="primary" style="display:none"/><path class="secondary" style="display:none"/><path class="tertiary" style="display:none"/><path class="secondary" style="display:none"/><path fill="none" class="secondary" style="display:none"/><path class="tertiary" style="display:none"/></g></g><g clip-path="url(#e)" style="display:block"><g clip-path="url(#f)" style="display:none"><g clip-path="url(#g)" style="display:block"><path fill="#FFC738" d="M-26.654-49.712 5.344 1.75l56.307 26.288s-1.095 23.656-24.88 21.528L-13.17 26.2l-48.482-72.443" class="tertiary" style="display:block" transform="translate(264.933 184.15)"/><g opacity=".5" style="mix-blend-mode:multiply;display:block"><path fill="#FFC738" d="m238.289 134.434 31.988 51.468 56.302 26.299s-1.1 23.655-24.885 21.523l-49.936-23.377-48.468-72.452" class="tertiary" opacity="1"/></g><path fill="none" stroke="#3A3347" stroke-linecap="round" stroke-linejoin="round" stroke-width="7" d="m10.177-118.884-20.354 237.768" class="primary" style="display:block" transform="translate(295.168 283.277)"/></g><g style="display:block"><path fill="#F9C9C0" d="m213.984 94.958 19.799-.78c3.573-.141 6.382-3.181 6.241-6.754l-1.272-32.239c-.471-11.947-10.63-21.338-22.578-20.866l-4.573.18c-11.948.471-21.338 10.632-20.867 22.58l.67 17.012c.472 11.948 10.632 21.338 22.58 20.867" class="quaternary"/><path fill="#3A3347" d="M240.899 48.206c.48 1.21-.392 2.528-1.694 2.526l-18.42-.034a7.67 7.67 0 0 0-7.686 7.659 7.6 7.6 0 0 1-2.261 5.417 7.62 7.62 0 0 1-5.426 2.242l-6.99-.014c-3.77-.007-6.833 3.044-6.84 6.803l-2.193-.004a2.175 2.175 0 0 1-2.17-2.178l.026-14.483c.022-11.96 9.827-21.728 21.788-21.706l11.7.021c9.133.017 16.98 5.733 20.166 13.75" class="primary"/></g><g fill="#3A3347" style="display:block"><path d="m181.189 226.68-9.602 64.342-45.53 48.278-17.737 16.54s29.734 33.59 35.53 40.09c15.132-2.499 7.49-29.85 7.49-29.85l55.759-53.833 37.296-87.349" class="primary"/><path d="m130.07 7.68 9.602 64.342 45.53 48.278 17.737 16.54s-29.734 33.59-35.53 40.09c-15.132-2.499-7.49-29.85-7.49-29.85L104.16 93.248 66.864 5.898" class="primary" opacity=".5" style="mix-blend-mode:multiply" transform="matrix(-1 0 0 1 311.259 219)"/></g><path fill="#B26836" d="m185.202 120.3 17.737 16.54s-29.734 33.59-35.53 40.09c-15.132-2.499-7.49-29.85-7.49-29.85" class="secondary" style="display:block" transform="matrix(-1 0 0 1 311.259 219)"/><path fill="#3A3347" d="M83.605 6.31 54.887 82.133l2.496 76.629s-24.179 9.003-16.371 24.111c11.567 0 44.727.009 53.479.009.338-14.242.324-25.585.324-25.585l.14-68.21 52.318-81.425" class="primary" style="display:block" transform="matrix(-1 0 0 1 328.009 219)"/><path fill="#B26836" d="M57.383 158.762s-24.179 9.003-16.371 24.111c11.567 0 44.727.009 53.479.009.338-14.242.324-25.585.324-25.585" class="secondary" style="display:block" transform="matrix(-1 0 0 1 328.009 219)"/><path fill="#FFC738" d="M1129.031 417.37c-15.906 0-32 13.13-32 31.99v75.71h64v-75.71c0-16.735-15.031-31.99-32-31.99" class="tertiary" style="display:block" transform="scale(-1 1)rotate(1.994 9049.127 -38175.602)"/><path fill="#B26836" d="m-13.374 54.903 40.674.139a.07.07 0 0 0 .07-.07l-1.996-97.875c0-6.6-5.4-12-12-12h-8.01c-16.906 0-30.738 13.832-30.738 30.738v67.068c0 6.6 5.4 12 12 12M-25.33-10.282l-7.522-.062c-6.6 0-12 5.4-12 12v24.188c0 6.6 5.4 12 12 12l7.583.001" class="secondary" style="display:block" transform="rotate(-1.994 4982.094 -4316.631)"/><path fill="none" stroke="#B26836" stroke-linecap="round" stroke-linejoin="round" stroke-width="7" d="M-13.683 48.36s48.645-60.324 24.739-95.327c-8.419-12.327-31.368-3.144-31.368-3.144" class="secondary" style="display:block" transform="translate(193.271 171.844)"/><path fill="#FFC738" d="m30.909-57.832-42.148 33.436-8.315 6.593-26.13 48.509c-3.461 23.607 21.088 27.042 21.088 27.042L4.798 3.06 45.68-29.275" class="tertiary" style="display:block" transform="translate(159.702 182.707)"/></g><g clip-path="url(#h)" style="display:block"><g clip-path="url(#i)" style="display:block"><path fill="#FFC738" d="m-26.653-49.711 32 51.465 56.305 26.295s-1.097 23.656-24.883 21.526l-49.936-23.374-48.485-72.444" class="tertiary" style="display:block" transform="translate(264.934 184.15)"/><g opacity=".5" style="mix-blend-mode:multiply;display:block"><path fill="#FFC738" d="m238.28 134.439 32 51.465 56.306 26.295s-1.097 23.656-24.883 21.526l-49.936-23.374-48.485-72.444" class="tertiary" opacity="1"/></g><path fill="none" stroke="#3A3347" stroke-linecap="round" stroke-linejoin="round" stroke-width="7" d="m10.177-118.884-20.354 237.768" class="primary" style="display:block" transform="translate(295.177 283.277)"/></g><g style="display:block"><path fill="#F9C9C0" d="m213.991 94.965 19.798-.805c3.573-.145 6.378-3.188 6.233-6.76l-1.31-32.238c-.487-11.947-10.658-21.325-22.605-20.839l-4.573.186c-11.947.486-21.325 10.658-20.839 22.605l.691 17.012c.486 11.947 10.658 21.325 22.605 20.84" class="quaternary"/><path fill="#3A3347" d="M240.85 48.18c.481 1.21-.39 2.53-1.692 2.528l-18.42-.01a7.67 7.67 0 0 0-7.677 7.667 7.6 7.6 0 0 1-2.254 5.42 7.62 7.62 0 0 1-5.423 2.248l-6.99-.005c-3.77-.002-6.829 3.052-6.83 6.811h-2.195a2.175 2.175 0 0 1-2.173-2.176l.01-14.483c.006-11.96 9.8-21.74 21.76-21.733l11.7.007c9.133.006 16.988 5.712 20.183 13.726" class="primary"/></g><g fill="#3A3347" style="display:block"><path d="m180.962 226.743-10.015 64.074-46.179 48.63-17.586 16.872s30.354 33.327 36.271 39.776c15.168-2.726 7.101-30.099 7.101-30.099l55.856-53.683 37.994-87.391" class="primary"/><path d="m130.297 7.743 10.015 64.074 46.179 48.63 17.586 16.872s-30.354 33.327-36.271 39.776c-15.168-2.726-7.101-30.099-7.101-30.099l-55.856-53.683L66.855 5.922" class="primary" opacity=".5" style="mix-blend-mode:multiply" transform="matrix(-1 0 0 1 311.259 219)"/></g><path fill="#B26836" d="m186.491 120.447 17.586 16.872s-30.354 33.327-36.271 39.776c-15.168-2.726-7.101-30.099-7.101-30.099" class="secondary" style="display:block" transform="matrix(-1 0 0 1 311.259 219)"/><path fill="#3A3347" d="M83.533 6.38 54.371 82.001l2.433 76.746s-24.179 9.003-16.371 24.111c11.567 0 44.727.009 53.479.009.338-14.242.324-25.585.324-25.585l.116-68.249 52.915-81.281" class="primary" style="display:block" transform="matrix(-1 0 0 1 328.009 219)"/><path fill="#B26836" d="M56.804 158.747s-24.179 9.003-16.371 24.111c11.567 0 44.727.009 53.479.009.338-14.242.324-25.585.324-25.585" class="secondary" style="display:block" transform="matrix(-1 0 0 1 328.009 219)"/><path fill="#FFC738" d="M1129.031 417.37c-15.906 0-32 13.13-32 31.99v75.71h64v-75.71c0-16.735-15.031-31.99-32-31.99" class="tertiary" style="display:block" transform="scale(-1 1)rotate(2 9023.252 -38060.619)"/><path fill="#B26836" d="m-13.374 54.903 39.651.784a.07.07 0 0 0 .07-.07l-.973-98.52c0-6.6-5.4-12-12-12h-8.01c-16.906 0-30.738 13.832-30.738 30.738v67.068c0 6.6 5.4 12 12 12m-11.958-65.185-7.522-.062c-6.6 0-12 5.4-12 12v24.188c0 6.6 5.4 12 12 12l7.583.001" class="secondary" style="display:block" transform="rotate(-2 4965.059 -4303.32)"/><path fill="none" stroke="#B26836" stroke-linecap="round" stroke-linejoin="round" stroke-width="7" d="M-15.35 49.705s50.353-61.669 26.447-96.672c-8.419-12.327-30.936-3.72-30.936-3.72" class="secondary" style="display:block" transform="translate(193.267 171.854)"/><path fill="#FFC738" d="m30.909-57.832-42.148 33.436-8.314 6.596-25.94 48.659c-3.363 23.641 21.22 26.973 21.22 26.973L4.908 2.974l40.901-32.331" class="tertiary" style="display:block" transform="translate(159.695 182.72)"/></g></g><g clip-path="url(#j)" style="display:none"><g clip-path="url(#k)" style="display:none"><g clip-path="url(#l)" style="display:none"><path class="tertiary" style="display:none"/><path class="tertiary" style="mix-blend-mode:multiply;display:none"/><path fill="none" class="primary" style="display:none"/></g><g style="display:none"><path class="quaternary"/><path class="primary"/></g><g style="display:none"><path class="primary"/><path class="primary" style="mix-blend-mode:multiply"/></g><path class="secondary" style="display:none"/><path class="primary" style="display:none"/><path class="secondary" style="display:none"/><path class="tertiary" style="display:none"/><path class="secondary" style="display:none"/><path fill="none" class="secondary" style="display:none"/><path class="tertiary" style="display:none"/></g></g></g></svg>