<svg xmlns="http://www.w3.org/2000/svg" width="430" height="430" style="width:100%;height:100%;transform:translate3d(0,0,0);content-visibility:visible" viewBox="0 0 430 430"><defs><clipPath id="f"><path d="M0 0h430v430H0z"/></clipPath><clipPath id="s"><path d="M0 0h430v430H0z"/></clipPath><clipPath id="t"><path d="M0 0h430v430H0z"/></clipPath><clipPath id="o"><path d="M0 0h430v430H0z"/></clipPath><clipPath id="p"><path d="M0 0h430v430H0z"/></clipPath><clipPath id="k"><path d="M0 0h430v430H0z"/></clipPath><clipPath id="n"><path d="M0 0h430v430H0z"/></clipPath><clipPath id="l"><path d="M0 0h430v430H0z"/></clipPath><clipPath id="g"><path d="M0 0h430v430H0z"/></clipPath><clipPath id="j"><path d="M0 0h430v430H0z"/></clipPath><clipPath id="i"><path d="M0 0h430v430H0z"/></clipPath><mask id="u" mask-type="alpha"><use xmlns:ns1="http://www.w3.org/1999/xlink" ns1:href="#a"/></mask><mask id="q" mask-type="alpha"><use xmlns:ns2="http://www.w3.org/1999/xlink" ns2:href="#b"/></mask><mask id="m" mask-type="alpha"><g filter="url(#c)"><path fill="#fff" d="M0 0h430v430H0z" opacity="0"/><use xmlns:ns3="http://www.w3.org/1999/xlink" ns3:href="#d"/></g></mask><mask id="h" mask-type="alpha"><use xmlns:ns4="http://www.w3.org/1999/xlink" ns4:href="#e"/></mask><path id="a" style="display:none"/><path id="b" style="display:none"/><path id="d" fill="red" d="M26.69-186.57h.06v106.81h106.68v-.06z" style="display:none" transform="translate(214 214.76)"/><filter id="c" width="100%" height="100%" x="0%" y="0%" filterUnits="objectBoundingBox"><feComponentTransfer in="SourceGraphic"><feFuncA tableValues="1.0 0.0" type="table"/></feComponentTransfer></filter><g id="e" style="display:none"><path fill-opacity="0" stroke-linecap="round" stroke-linejoin="round" class="primary"/><path/><g style="mix-blend-mode:multiply"><path fill-opacity="0" stroke-linecap="round" stroke-linejoin="round" class="primary"/><path/></g></g></defs><g clip-path="url(#f)"><g clip-path="url(#g)" style="display:none"><g style="display:none"><path fill="none" class="primary"/><path class="primary"/><g style="mix-blend-mode:multiply"><path fill="none" class="primary"/><path class="primary"/></g></g><g mask="url(#h)" style="mix-blend-mode:multiply;display:none"><path fill="none" class="primary"/><path class="primary"/></g><g fill="none" clip-path="url(#i)" style="display:none"><path class="secondary" style="display:none"/><path class="secondary" style="display:none"/><path class="secondary" style="display:none"/><path class="secondary" style="display:none"/><path class="secondary" style="display:none"/><path class="secondary" style="display:none"/></g><g style="display:none"><path fill="none" class="primary"/><path class="primary"/></g><g style="display:none"><path fill="none" class="primary"/><path class="primary"/></g><g style="mix-blend-mode:multiply;display:none"><path fill="none" class="primary"/><path class="primary"/></g><g style="display:none"><path fill="none" class="primary"/><path class="primary"/></g><g fill="none" clip-path="url(#j)" style="display:none"><path class="secondary" style="display:none"/><path class="secondary" style="display:none"/><path class="secondary" style="display:none"/><path class="secondary" style="display:none"/><path class="secondary" style="display:none"/><path class="secondary" style="display:none"/></g></g><g clip-path="url(#k)" style="display:block"><g style="display:block"><path fill="none" stroke="#EBE6EF" stroke-linecap="round" stroke-linejoin="round" stroke-width="7" d="M241.69 28.19H81.57v373.14h266.86V134.94zm-159.87 0v372.95h266.61" class="primary"/><path fill="#EBE6EF" d="M241.69 28.19H81.57v373.14h266.86V134.94zm-159.87 0v372.95h266.61" class="primary"/></g><g fill="none" stroke="#2CA58D" stroke-linecap="round" stroke-linejoin="round" stroke-width="7" clip-path="url(#l)" style="display:block"><path d="M-46.998 0h93.996" class="secondary" style="display:block" transform="translate(248.655 335.209)"/><path d="m-19.9.212 13.228 13.131 26.687-26.686" class="secondary" style="display:block" transform="translate(154.955 335.209)"/><path d="M-46.998 0h93.996" class="secondary" style="display:block" transform="translate(248.655 268.209)"/><path d="m-19.9.212 13.228 13.131 26.687-26.686" class="secondary" style="display:block" transform="translate(154.955 268.209)"/><path d="M-46.998 0h93.996" class="secondary" style="display:block" transform="translate(248.655 201.709)"/><path d="m-19.9.212 13.228 13.131 26.687-26.686" class="secondary" style="display:block" transform="translate(154.955 201.709)"/></g><g mask="url(#m)" style="display:none"><g fill="none" stroke="#2CA58D" stroke-linecap="round" stroke-linejoin="round" stroke-width="7" clip-path="url(#n)" transform="translate(-2.125 .12)"><path d="M-46.998 0h93.996" class="secondary" style="display:block" transform="translate(248.655 335.209)"/><path d="m-19.9.212 13.228 13.131 26.687-26.686" class="secondary" style="display:block" transform="translate(154.955 335.209)"/><path d="M-46.998 0h93.996" class="secondary" style="display:block" transform="translate(248.655 268.209)"/><path d="m-19.9.212 13.228 13.131 26.687-26.686" class="secondary" style="display:block" transform="translate(154.955 268.209)"/><path d="M-46.998 0h93.996" class="secondary" style="display:block" transform="translate(248.655 201.709)"/><path d="m-19.9.212 13.228 13.131 26.687-26.686" class="secondary" style="display:block" transform="translate(154.955 201.709)"/></g></g><g style="mix-blend-mode:multiply;display:none"><path fill="none" stroke="#EBE6EF" stroke-linecap="round" stroke-linejoin="round" stroke-width="7" d="M240.69 28.19h.06V135h106.68v-.06z"/><path fill="#EBE6EF" d="M240.69 28.19h.06V135h106.68v-.06z"/></g><g style="mix-blend-mode:multiply;display:block"><path fill="none" stroke="#EBE6EF" stroke-linecap="round" stroke-linejoin="round" stroke-width="7" d="M241.687 28.194 348.433 134.94M241.687 28.194V134.94h106.746" class="primary"/><path fill="#EBE6EF" d="M241.687 28.194 348.433 134.94M241.687 28.194V134.94h106.746" class="primary"/></g></g><g clip-path="url(#o)" style="display:none"><g style="display:none"><path fill="none" class="primary"/><path class="primary"/></g><g style="display:none"><path fill="none" class="primary"/><path class="primary"/></g><g style="mix-blend-mode:multiply;display:none"><path fill="none" class="primary"/><path class="primary"/></g><g style="display:none"><path fill="none" class="primary"/><path class="primary"/></g><g fill="none" clip-path="url(#p)" mask="url(#q)" style="display:none"><path class="secondary" style="display:none"/><path class="secondary" style="display:none"/><path class="secondary" style="display:none"/><path class="secondary" style="display:none"/><path class="secondary" style="display:none"/><path class="secondary" style="display:none"/></g></g><g clip-path="url(#s)" style="display:none"><g style="display:none"><path class="primary"/><path fill="none" class="primary"/></g><g style="display:none"><path fill="none" class="primary"/><path class="primary"/></g><g style="display:none"><path fill="none" class="primary"/><path class="primary"/><path fill="none" class="primary"/></g><g style="mix-blend-mode:multiply;display:none"><path fill="none" class="primary"/><path class="primary"/><path fill="none" class="primary"/></g><g fill="none" clip-path="url(#t)" mask="url(#u)" style="display:none"><path class="secondary" style="display:none"/><path class="secondary" style="display:none"/><path class="secondary" style="display:none"/><path class="secondary" style="display:none"/><path class="secondary" style="display:none"/><path class="secondary" style="display:none"/></g></g></g></svg>