<svg xmlns="http://www.w3.org/2000/svg" width="430" height="430" style="width:100%;height:100%;transform:translate3d(0,0,0);content-visibility:visible" viewBox="0 0 430 430"><defs><clipPath id="c"><path d="M0 0h430v430H0z"/></clipPath><clipPath id="e"><path d="M0 0h430v430H0z"/></clipPath><clipPath id="h"><path d="M0 0h430v430H0z"/></clipPath><clipPath id="g"><path d="M0 0h430v430H0z"/></clipPath><clipPath id="f"><path d="M0 0h430v430H0z"/></clipPath><clipPath id="d"><path d="M0 0h430v430H0z"/></clipPath><filter id="a" width="100%" height="100%" x="0%" y="0%" filterUnits="objectBoundingBox"><feComponentTransfer in="SourceGraphic"><feFuncA tableValues="1.0 0.0" type="table"/></feComponentTransfer></filter><mask id="i" mask-type="alpha"><g filter="url(#a)"><path fill="#fff" d="M0 0h430v430H0z" opacity="0"/><use xmlns:ns1="http://www.w3.org/1999/xlink" ns1:href="#b"/></g></mask><g id="b" style="display:none"><path class="primary"/><path class="primary"/></g></defs><g clip-path="url(#c)"><g clip-path="url(#d)" style="display:block"><g style="display:block"><path fill="#B26836" d="m340.724 258.094 34.531 116.984H55.015v-161.39s42.11.21 96.52 11.3c.01 0 .01.01.02.01 20.02 4.08 41.71 9.63 63.58 17.2h.01C312 241 340.724 258.094 340.724 258.094" class="secondary"/><path fill="#B26836" d="M117.39 80.695H25.05C24.4 77.705.81-27.065-117.39-80.695c0 0 42.1.21 96.51 11.3.01 0 .02.01.03.01 114.22 55.43 138.24 150.08 138.24 150.08" class="secondary" opacity=".5" style="mix-blend-mode:multiply" transform="translate(172.905 294.383)"/><path fill="#B26836" d="M29.61 45.225h-59.22v-90.45c55.47 44.46 59.11 88.91 59.22 90.45" class="secondary" opacity=".5" style="mix-blend-mode:multiply" transform="translate(85.125 329.853)"/><path fill="#2CA58D" d="M375.755 214.013v161.39c-12.14-29.14-30.47-53.02-52.33-72.58-13.99-12.52-29.42-23.28-45.61-32.52-20.01-11.42-41.17-20.53-62.17-27.78 81.31-28.11 160.11-28.51 160.11-28.51" class="tertiary"/><path fill="#2CA58D" d="M26.165-55.555v111.11c-12.14-29.14-30.47-53.02-52.33-72.58 0 0 16.71-17.87 52.33-38.53" class="tertiary" opacity=".5" style="mix-blend-mode:multiply" transform="translate(349.59 319.523)"/><path fill="#2CA58D" d="M80.055-28.145c-59.78 19.61-97.94 56.29-97.94 56.29-20.01-11.42-41.17-20.53-62.17-27.78 81.31-28.11 160.11-28.51 160.11-28.51" class="tertiary" opacity=".5" style="mix-blend-mode:multiply" transform="translate(295.7 242.158)"/></g><g fill="#FFC738" style="display:block"><path d="M262.74 153.228c0 26.36-21.37 47.74-47.73 47.74s-47.73-21.38-47.73-47.74 21.37-47.73 47.73-47.73 47.73 21.37 47.73 47.73" class="primary"/><path d="M28.01 47.015c-2.69.47-5.46.72-8.29.72-26.36 0-47.73-21.38-47.73-47.74s21.37-47.73 47.73-47.73c2.83 0 5.6.25 8.29.72-22.41 3.92-39.44 23.48-39.44 47.01s17.03 43.1 39.44 47.02" class="primary" opacity=".5" style="mix-blend-mode:multiply" transform="translate(195.29 153.233)"/></g><path fill="none" stroke="#FFC738" stroke-linecap="round" stroke-linejoin="round" stroke-width="7" d="M289.738 153.267h23.648m-45.538-52.848 28.316-28.316M215 78.529V54.881m-52.649 45.503-28.316-28.316m6.426 81.164h-23.648" class="primary" style="display:block"/></g><g clip-path="url(#e)" style="display:none"><g clip-path="url(#f)" style="display:none"><path class="tertiary"/><path class="tertiary" style="mix-blend-mode:multiply"/><path class="tertiary" style="mix-blend-mode:multiply"/></g><g clip-path="url(#g)" style="display:none"><path class="secondary"/><path class="secondary" style="mix-blend-mode:multiply"/><path class="secondary" style="mix-blend-mode:multiply"/></g><g clip-path="url(#h)" style="display:none"><path fill="none" class="primary" style="display:none"/><path fill="none" class="primary" style="display:none"/><path fill="none" class="primary" style="display:none"/><path fill="none" class="primary" style="display:none"/><path fill="none" class="primary" style="display:none"/><path fill="none" class="primary" style="display:none"/><path fill="none" class="primary" style="display:none"/><path fill="none" class="primary" style="display:none"/><g style="display:none"><path class="primary"/><path class="primary"/></g><g mask="url(#i)" style="mix-blend-mode:multiply;display:none"><path class="primary"/><path class="primary"/></g></g></g></g></svg>