<svg xmlns="http://www.w3.org/2000/svg" width="430" height="430" style="width:100%;height:100%;transform:translate3d(0,0,0);content-visibility:visible" viewBox="0 0 430 430"><defs><clipPath id="c"><path d="M0 0h430v430H0z"/></clipPath><clipPath id="g"><path d="M0 0h430v430H0z"/></clipPath><clipPath id="f"><path d="M0 0h430v430H0z"/></clipPath><clipPath id="d"><path d="M0 0h430v430H0z"/></clipPath><filter id="a" width="100%" height="100%" x="0%" y="0%" filterUnits="objectBoundingBox"><feComponentTransfer in="SourceGraphic"><feFuncA tableValues="1.0 0.0" type="table"/></feComponentTransfer></filter><path id="b" style="display:none"/><mask id="e" mask-type="alpha"><g filter="url(#a)"><path fill="#fff" d="M0 0h430v430H0z" opacity="0"/><use xmlns:ns1="http://www.w3.org/1999/xlink" ns1:href="#b"/></g></mask></defs><g clip-path="url(#c)"><g clip-path="url(#d)" style="display:none"><g fill="none" style="display:none"><path class="primary"/><path class="primary"/></g><g fill="none" mask="url(#e)" style="mix-blend-mode:multiply;display:none"><path class="primary"/><path class="primary"/></g><path class="secondary" style="display:none"/><path class="secondary" style="mix-blend-mode:multiply;display:none"/><path fill="none" class="secondary" style="display:none"/><path class="primary" style="display:none"/><path class="primary" style="mix-blend-mode:multiply;display:none"/><g fill="none" style="display:none"><path class="tertiary"/><path class="quaternary"/></g><g fill="none" style="display:none"><path class="tertiary"/><path class="quaternary"/></g></g><g clip-path="url(#f)" style="display:block"><path fill="#FFC738" d="M208.99 168.2c0 23.8 19.29 43.09 43.09 43.09 23.8 0 43.09-19.29 43.09-43.09 0-23.79-19.29-43.09-43.09-43.09-23.8 0-43.09 19.3-43.09 43.09z" class="secondary" style="display:block"/><path fill="none" stroke="#FFC738" stroke-linecap="round" stroke-linejoin="round" stroke-width="7" d="M-57.601-12.732v-22.254m-49.732 42.854-15.736-15.736m-4.864 65.469h-22.254m42.854 49.732-15.736 15.736m65.468 4.864v22.254m49.733-42.854 15.736 15.736m4.864-65.468h22.254M-7.868 7.868 7.868-7.868" class="secondary" style="display:block" transform="translate(309.678 110.603)"/><g opacity=".5" style="mix-blend-mode:multiply;display:block"><path fill="#FFC738" d="M236.269 199.388a43.06 43.06 0 0 0 27.451 9.862c1.43 0 2.84-.08 4.28-.21a43.093 43.093 0 0 1-49.918-13.3 43.09 43.09 0 0 1 29.718-69.57 43.057 43.057 0 0 0-11.531 73.218z" class="secondary" opacity="1"/></g><path fill="#EBE6EF" d="M34.684 30.81c.232.434.567.805.976 1.079a63.225 63.225 0 0 1 24.753 70.876 63.231 63.231 0 0 1-97.95 32.221A63.231 63.231 0 0 1-35.66 31.889a3.002 3.002 0 0 0 1.33-2.48v-162.708a34.432 34.432 0 0 1 33.86-34.33c19.14-.28 34.8 15.86 34.8 35V29.399c0 .492.122.977.354 1.411z" class="primary" style="display:block" transform="matrix(1.17 0 0 1.17 184.96 227.011)"/><g opacity=".5" style="mix-blend-mode:multiply;display:block"><path fill="#EBE6EF" d="M134.633 298.175a73.921 73.921 0 0 0-8.554 34.542 73.962 73.962 0 0 0 38.177 64.771 73.98 73.98 0 0 1-22.3-132.48 3.512 3.512 0 0 0 1.556-2.912V71.274c0-21.072 15.889-39.16 36.949-40.833a39.905 39.905 0 0 1 26.032 7.02 40.12 40.12 0 0 0-46.6 39.64v191.617a3.504 3.504 0 0 1-1.557 2.913 73.925 73.925 0 0 0-23.703 26.544z" class="primary" opacity="1"/></g><path fill="none" stroke="#F24C00" stroke-linecap="round" stroke-linejoin="round" stroke-width="30" d="M0 75s0 0 0 0" class="tertiary" style="display:block" transform="translate(185 250)"/><path fill="none" stroke="#F24C00" stroke-linecap="round" stroke-linejoin="round" stroke-width="7" d="M0-125.375V75" class="tertiary" style="display:block" transform="translate(185 250)"/></g><g clip-path="url(#g)" style="display:none"><path class="secondary" style="display:none"/><path class="secondary" style="mix-blend-mode:multiply;display:none"/><path fill="none" class="secondary" style="display:none"/><path class="primary" style="display:none"/><path class="primary" style="mix-blend-mode:multiply;display:none"/><path fill="none" class="tertiary" style="display:none"/><path fill="none" class="tertiary" style="display:none"/></g></g></svg>