<svg xmlns="http://www.w3.org/2000/svg" width="430" height="430" style="width:100%;height:100%;transform:translate3d(0,0,0);content-visibility:visible" viewBox="0 0 430 430"><defs><filter id="a" width="100%" height="100%" x="0%" y="0%" filterUnits="objectBoundingBox"><feComponentTransfer in="SourceGraphic"><feFuncA tableValues="1.0 0.0" type="table"/></feComponentTransfer></filter><filter id="c" width="100%" height="100%" x="0%" y="0%" filterUnits="objectBoundingBox"><feComponentTransfer in="SourceGraphic"><feFuncA tableValues="1.0 0.0" type="table"/></feComponentTransfer></filter><filter id="e" width="100%" height="100%" x="0%" y="0%" filterUnits="objectBoundingBox"><feComponentTransfer in="SourceGraphic"><feFuncA tableValues="1.0 0.0" type="table"/></feComponentTransfer></filter><filter id="g" width="100%" height="100%" x="0%" y="0%" filterUnits="objectBoundingBox"><feComponentTransfer in="SourceGraphic"><feFuncA tableValues="1.0 0.0" type="table"/></feComponentTransfer></filter><filter id="i" width="100%" height="100%" x="0%" y="0%" filterUnits="objectBoundingBox"><feComponentTransfer in="SourceGraphic"><feFuncA tableValues="1.0 0.0" type="table"/></feComponentTransfer></filter><filter id="k" width="100%" height="100%" x="0%" y="0%" filterUnits="objectBoundingBox"><feComponentTransfer in="SourceGraphic"><feFuncA tableValues="1.0 0.0" type="table"/></feComponentTransfer></filter><filter id="m" width="100%" height="100%" x="0%" y="0%" filterUnits="objectBoundingBox"><feComponentTransfer in="SourceGraphic"><feFuncA tableValues="1.0 0.0" type="table"/></feComponentTransfer></filter><filter id="o" width="100%" height="100%" x="0%" y="0%" filterUnits="objectBoundingBox"><feComponentTransfer in="SourceGraphic"><feFuncA tableValues="1.0 0.0" type="table"/></feComponentTransfer></filter><mask id="A" mask-type="alpha"><g filter="url(#a)"><path fill="#fff" d="M0 0h430v430H0z" opacity="0"/><use xmlns:ns1="http://www.w3.org/1999/xlink" ns1:href="#b"/></g></mask><mask id="z" mask-type="alpha"><g filter="url(#c)"><path fill="#fff" d="M0 0h430v430H0z" opacity="0"/><use xmlns:ns2="http://www.w3.org/1999/xlink" ns2:href="#d"/></g></mask><mask id="x" mask-type="alpha"><g filter="url(#e)"><path fill="#fff" d="M0 0h430v430H0z" opacity="0"/><use xmlns:ns3="http://www.w3.org/1999/xlink" ns3:href="#f"/></g></mask><mask id="w" mask-type="alpha"><g filter="url(#g)"><path fill="#fff" d="M0 0h430v430H0z" opacity="0"/><use xmlns:ns4="http://www.w3.org/1999/xlink" ns4:href="#h"/></g></mask><mask id="v" mask-type="alpha"><g filter="url(#i)"><path fill="#fff" d="M0 0h430v430H0z" opacity="0"/><use xmlns:ns5="http://www.w3.org/1999/xlink" ns5:href="#j"/></g></mask><mask id="u" mask-type="alpha"><g filter="url(#k)"><path fill="#fff" d="M0 0h430v430H0z" opacity="0"/><use xmlns:ns6="http://www.w3.org/1999/xlink" ns6:href="#l"/></g></mask><mask id="t" mask-type="alpha"><g filter="url(#m)"><path fill="#fff" d="M0 0h430v430H0z" opacity="0"/><use xmlns:ns7="http://www.w3.org/1999/xlink" ns7:href="#n"/></g></mask><mask id="s" mask-type="alpha"><g filter="url(#o)"><path fill="#fff" d="M0 0h430v430H0z" opacity="0"/><use xmlns:ns8="http://www.w3.org/1999/xlink" ns8:href="#p"/></g></mask><path id="b" style="display:none"/><path id="f" style="display:none"/><path id="j" fill="#EBE6EF" d="M-122.738 46.389H26.27c6.6 0 12-5.4 12-12v-239.831c0-6.6-5.4-12-12-12h-149.008c-6.6 0-12 5.4-12 12V34.389c0 6.6 5.4 12 12 12" style="display:block" transform="translate(234.06 344.04)scale(1.023)"/><path id="n" style="display:none"/><g id="d" style="display:none"><path/><path style="mix-blend-mode:multiply"/></g><g id="h" style="display:none"><path/><path style="mix-blend-mode:multiply"/></g><g id="l" style="display:none"><path/><path style="mix-blend-mode:multiply"/></g><g id="p" fill="#EBE6EF" style="display:block"><path d="m118.03 252.747 110.644 99.806c4.901 4.42 12.528 4.028 16.949-.873l160.64-178.083c4.42-4.901 4.028-12.528-.873-16.948L294.746 56.843c-4.9-4.421-12.527-4.029-16.948.872l-160.64 178.083c-4.421 4.901-4.028 12.528.872 16.949"/><path fill-opacity=".5" d="m41.024 107.006 149.008.135c6.6.006 12.005-5.389 12.011-11.989l.218-239.831c.006-6.6-5.389-12.005-11.989-12.011l-149.008-.135c-6.6-.006-12.005 5.389-12.011 11.989l-.218 239.831c-.006 6.6 5.389 12.005 11.989 12.011" style="mix-blend-mode:multiply" transform="rotate(42 -110.306 280.18)"/></g><clipPath id="q"><path d="M0 0h430v430H0z"/></clipPath><clipPath id="y"><path d="M0 0h430v430H0z"/></clipPath><clipPath id="r"><path d="M0 0h430v430H0z"/></clipPath></defs><g clip-path="url(#q)"><g clip-path="url(#r)" style="display:block"><g style="display:block"><g fill="#EBE6EF"><path d="m104.654 240.702 110.644 99.806c4.9 4.421 12.527 4.028 16.948-.872l160.64-178.084c4.421-4.9 4.028-12.527-.872-16.948L281.369 44.798c-4.9-4.42-12.527-4.028-16.948.873l-160.64 178.083c-4.42 4.9-4.028 12.527.873 16.948" class="primary"/><path fill-opacity=".5" d="m41.024 107.006 149.008.135c6.6.006 12.005-5.389 12.011-11.989l.218-239.831c.006-6.6-5.389-12.005-11.989-12.011l-149.008-.135c-6.6-.006-12.005 5.389-12.011 11.989l-.218 239.831c-.006 6.6 5.389 12.005 11.989 12.011" class="primary" style="mix-blend-mode:multiply" transform="rotate(42 -101.306 256.735)"/></g><path fill="#F24C00" d="m217.089 221.239 4.629-48.538a5.05 5.05 0 0 1 4.033-4.472l47.806-9.59c3.32-.666 6.342 2.06 6.02 5.43l-4.629 48.538a5.05 5.05 0 0 1-4.033 4.472l-47.806 9.59c-3.32.666-6.342-2.06-6.02-5.43" class="secondary"/></g><g opacity=".5" style="mix-blend-mode:multiply;display:block"><g fill="#EBE6EF" mask="url(#s)" opacity="1"><path d="m104.654 240.702 110.644 99.806c4.9 4.421 12.527 4.028 16.948-.872l160.64-178.084c4.421-4.9 4.028-12.527-.872-16.948L281.369 44.798c-4.9-4.42-12.527-4.028-16.948.873l-160.64 178.083c-4.42 4.9-4.028 12.527.873 16.948" class="primary"/><path fill-opacity=".5" d="m41.024 107.006 149.008.135c6.6.006 12.005-5.389 12.011-11.989l.218-239.831c.006-6.6-5.389-12.005-11.989-12.011l-149.008-.135c-6.6-.006-12.005 5.389-12.011 11.989l-.218 239.831c-.006 6.6 5.389 12.005 11.989 12.011" class="primary" style="mix-blend-mode:multiply" transform="rotate(42 -101.306 256.735)"/></g></g><g style="display:none"><path class="primary"/><path class="secondary"/></g><g mask="url(#t)" style="mix-blend-mode:multiply;display:none"><path class="primary"/></g><g style="display:none"><path class="primary"/><path class="primary" style="mix-blend-mode:multiply"/><path class="secondary"/></g><g mask="url(#u)" style="mix-blend-mode:multiply;display:none"><path class="primary"/><path class="primary" style="mix-blend-mode:multiply"/></g><path fill="none" stroke="#F24C00" stroke-linecap="round" stroke-linejoin="round" stroke-width="7" d="m57.26-110.548 1.088-21.269 20.084.018M57.245-93.712a12.63 12.63 0 0 0 9.458 4.262c6.999.006 12.674-5.663 12.68-12.657.006-6.999-5.658-12.674-12.657-12.68a12.63 12.63 0 0 0-9.466 4.24M174.87 60.648l-1.088 21.269-20.084-.018m21.187-38.087a12.63 12.63 0 0 0-9.458-4.262c-6.999-.006-12.674 5.663-12.68 12.657-.006 6.999 5.658 12.674 12.657 12.68a12.63 12.63 0 0 0 9.466-4.239" class="secondary" style="display:block" transform="rotate(42 -101.306 256.735)"/><g style="display:block"><path fill="#EBE6EF" d="M88.729 388.462h149.008c6.6 0 12-5.4 12-12V136.631c0-6.6-5.4-12-12-12H88.729c-6.6 0-12 5.4-12 12v239.831c0 6.6 5.4 12 12 12" class="primary"/><path fill="#F24C00" d="m159.178 298.7-29.073-39.142a5.05 5.05 0 0 1 0-6.022l29.073-39.142c2.019-2.718 6.089-2.718 8.108 0l29.073 39.142a5.05 5.05 0 0 1 0 6.022L167.286 298.7c-2.019 2.718-6.089 2.718-8.108 0" class="secondary"/></g><g mask="url(#v)" opacity=".5" style="mix-blend-mode:multiply;display:block"><path fill="#EBE6EF" d="M88.729 388.462h149.008c6.6 0 12-5.4 12-12V136.631c0-6.6-5.4-12-12-12H88.729c-6.6 0-12 5.4-12 12v239.831c0 6.6 5.4 12 12 12" class="primary" opacity="1"/></g><path fill="none" stroke="#F24C00" stroke-linecap="round" stroke-linejoin="round" stroke-width="7" d="M126.824 192.483h-25.431l21.098-25.381a10.558 10.558 0 0 0-8.385-16.979c-5.829 0-10.555 4.726-10.555 10.561m95.701 160.709h25.43l-21.098 25.381a10.53 10.53 0 0 0-2.175 6.418c0 5.835 4.725 10.561 10.56 10.561 5.829 0 10.555-4.726 10.555-10.561" class="secondary" style="display:block"/><path fill="none" class="secondary" style="display:none"/><g style="display:none"><path class="primary"/><path class="primary" style="mix-blend-mode:multiply"/><path class="secondary"/></g><g mask="url(#w)" style="mix-blend-mode:multiply;display:none"><path class="primary"/><path class="primary" style="mix-blend-mode:multiply"/></g><path fill="none" class="secondary" style="display:none"/><path fill="none" class="secondary" style="display:none"/><g style="display:none"><path class="primary"/><path class="secondary"/></g><g mask="url(#x)" style="mix-blend-mode:multiply;display:none"><path class="primary"/></g><path fill="none" class="secondary" style="display:none"/></g><g clip-path="url(#y)" style="display:none"><g style="display:none"><path class="primary"/><path class="primary" style="mix-blend-mode:multiply"/></g><g mask="url(#z)" style="mix-blend-mode:multiply;display:none"><path class="primary"/></g><g style="display:none"><path class="secondary"/><path fill="none" class="secondary"/></g><path class="primary" style="display:none"/><g mask="url(#A)" style="mix-blend-mode:multiply;display:none"><path class="primary"/></g><g style="display:none"><path class="secondary"/><path fill="none" class="secondary"/><path fill="none" class="secondary"/></g></g></g></svg>